<svg width="48" height="48" viewBox="0 0 48 48" fill="none" xmlns="http://www.w3.org/2000/svg">
<path d="M40.6607 8.09869C37.5071 6.63024 34.1778 5.58847 30.758 5C30.29 5.85085 29.8666 6.72626 29.4894 7.62256C25.8466 7.06427 22.1421 7.06427 18.4993 7.62256C18.122 6.72635 17.6986 5.85095 17.2308 5C13.8088 5.59344 10.4773 6.63768 7.32049 8.10637C1.05338 17.5368 -0.645532 26.7331 0.203925 35.7988C3.8741 38.5567 7.98207 40.6542 12.3493 42C13.3326 40.6549 14.2028 39.2278 14.9505 37.734C13.5303 37.1946 12.1596 36.529 10.8542 35.745C11.1978 35.4916 11.5338 35.2305 11.8585 34.9771C15.6569 36.7938 19.8026 37.7358 24.0001 37.7358C28.1975 37.7358 32.3432 36.7938 36.1416 34.9771C36.4701 35.2497 36.8061 35.5108 37.1459 35.745C35.838 36.5303 34.4647 37.1971 33.0421 37.7379C33.7888 39.231 34.6591 40.6568 35.6433 42C40.0142 40.6596 44.1253 38.5631 47.7962 35.8026V35.8026C48.7929 25.2893 46.0935 16.1776 40.6607 8.09869ZM16.0265 30.2234C13.6593 30.2234 11.7037 28.0386 11.7037 25.3508C11.7037 22.6629 13.5914 20.4589 16.0189 20.4589C18.4465 20.4589 20.387 22.6629 20.3455 25.3508C20.304 28.0386 18.4389 30.2234 16.0265 30.2234ZM31.9736 30.2234C29.6027 30.2234 27.6546 28.0386 27.6546 25.3508C27.6546 22.6629 29.5423 20.4589 31.9736 20.4589C34.405 20.4589 36.3304 22.6629 36.2889 25.3508C36.2473 28.0386 34.3861 30.2234 31.9736 30.2234Z" fill="#5865F2"/>
</svg>
