<svg width="48" height="48" viewBox="0 0 48 48" fill="none" xmlns="http://www.w3.org/2000/svg">
<path d="M0 8C0 3.58172 3.57587 0 7.98693 0H39.0131C43.4241 0 47 3.58172 47 8V40C47 44.4183 43.4241 48 39.0131 48H7.98693C3.57587 48 0 44.4183 0 40V8Z" fill="#0077B5"/>
<path d="M33.0838 41.2526H40.1611V26.9553C40.1611 19.8942 35.8936 17.4858 31.9445 17.4858C28.2928 17.4858 25.8122 19.9154 25.1273 21.3385V18.1356H18.321V41.2526H25.3983V28.7193C25.3983 25.3775 27.4569 23.7523 29.557 23.7523C31.5433 23.7523 33.0838 24.9012 33.0838 28.6265V41.2526Z" fill="white"/>
<path d="M6.45041 10.7377C6.45041 13.1511 8.2772 14.9148 10.5306 14.9148C12.7844 14.9148 14.6112 13.1511 14.6112 10.7377C14.6112 8.32459 12.7844 6.5589 10.5306 6.5589C8.2772 6.5589 6.45041 8.32459 6.45041 10.7377Z" fill="white"/>
<path d="M6.99211 41.2347H14.0691V18.1177H6.99211V41.2347Z" fill="white"/>
</svg>
