<?xml version="1.0" encoding="utf-8"?>
<svg version="1.1" id="Layer_1" x="0px" y="0px" width="100%" viewBox="0 0 300 300" enable-background="new 0 0 300 300" xmlns="http://www.w3.org/2000/svg">
  <path opacity="1.000000" stroke="none" d=" M24.127163,213.886200 C-5.633334,153.146851 9.085181,83.062149 60.459019,39.888107 C113.942368,-5.058747 195.035049,-3.195598 246.617737,44.064003 C273.113831,68.339493 289.410248,98.276329 292.593231,133.909454 C297.798462,192.181107 275.913818,238.924545 226.259018,270.203125 C180.555099,298.992950 132.266922,299.645905 84.217392,275.180420 C57.670490,261.663483 38.006969,240.691330 24.127163,213.886200 M163.031158,75.525085 C143.453064,126.882332 123.866882,178.236496 104.304108,229.599579 C100.646408,239.203033 103.363548,247.754425 110.964203,250.878601 C120.624710,254.849411 128.270264,251.239639 132.623383,240.506790 C135.056717,234.507324 137.287292,228.425644 139.609070,222.380951 C158.959015,172.004013 178.353287,121.643944 197.565247,71.214432 C198.935867,67.616646 199.855515,63.409100 199.429886,59.661690 C198.684097,53.095284 193.268188,48.649250 186.542862,47.641430 C180.261520,46.700146 174.057495,49.505123 171.207062,55.449379 C168.199463,61.721371 165.894562,68.330322 163.031158,75.525085 M128.190475,79.172554 C119.449615,73.678574 110.895119,75.890152 105.991745,84.963821 C105.127754,86.562630 104.417900,88.255898 103.760147,89.953316 C96.445160,108.830589 89.122742,127.705116 81.869003,146.605972 C77.471123,158.065430 72.798302,169.441605 68.986908,181.096497 C66.225945,189.539261 70.581123,197.390366 78.267891,199.987717 C86.538002,202.782181 94.402657,199.350845 97.720917,190.870987 C109.754791,160.118332 121.612389,129.296539 133.475464,98.477325 C136.285263,91.177727 134.800964,84.799339 128.190475,79.172554 M170.746643,205.427979 C172.203156,210.780838 175.379059,214.508194 180.800400,216.163589 C188.963181,218.656067 196.976837,214.074677 200.804825,204.101273 C209.719772,180.874496 218.483521,157.588547 227.127823,134.259628 C230.503464,125.149582 227.254486,116.973854 219.490479,113.746552 C211.317703,110.349327 202.299057,113.926163 198.690399,122.920639 C189.366348,146.160583 180.336792,169.522141 171.544540,192.968231 C170.222748,196.493073 170.807556,200.732895 170.746643,205.427979 M245.735184,164.984497 C246.390762,165.095932 247.043488,165.229355 247.702362,165.315506 C256.730652,166.495850 264.176086,160.878510 265.481995,151.907761 C266.699554,143.543961 260.722717,135.847305 252.030212,134.585251 C244.825668,133.539230 237.480270,138.084671 235.216415,144.989838 C232.559113,153.095108 236.239075,160.558411 245.735184,164.984497 M57.242607,136.006256 C50.815804,133.190323 44.832520,133.918274 39.675114,138.703354 C34.978161,143.061218 33.736256,148.609985 35.545235,154.678604 C37.530575,161.338882 43.805107,165.765472 50.589054,165.625519 C57.337536,165.486282 63.040413,161.210800 65.150826,154.708466 C67.474190,147.550018 65.004715,141.266418 57.242607,136.006256 z" style="fill: rgb(255, 255, 255);"/>
  <g>
    <path opacity="1.000000" stroke="none" d=" M163.156906,75.158569 C165.894562,68.330322 168.199463,61.721371 171.207062,55.449379 C174.057495,49.505123 180.261520,46.700146 186.542862,47.641430 C193.268188,48.649250 198.684097,53.095284 199.429886,59.661690 C199.855515,63.409100 198.935867,67.616646 197.565247,71.214432 C178.353287,121.643944 158.959015,172.004013 139.609070,222.380951 C137.287292,228.425644 135.056717,234.507324 132.623383,240.506790 C128.270264,251.239639 120.624710,254.849411 110.964203,250.878601 C103.363548,247.754425 100.646408,239.203033 104.304108,229.599579 C123.866882,178.236496 143.453064,126.882332 163.156906,75.158569 z" style="fill: rgb(2, 37, 141);"/>
    <path opacity="1.000000" stroke="none" d=" M128.487900,79.397064 C134.800964,84.799339 136.285263,91.177727 133.475464,98.477325 C121.612389,129.296539 109.754791,160.118332 97.720917,190.870987 C94.402657,199.350845 86.538002,202.782181 78.267891,199.987717 C70.581123,197.390366 66.225945,189.539261 68.986908,181.096497 C72.798302,169.441605 77.471123,158.065430 81.869003,146.605972 C89.122742,127.705116 96.445160,108.830589 103.760147,89.953316 C104.417900,88.255898 105.127754,86.562630 105.991745,84.963821 C110.895119,75.890152 119.449615,73.678574 128.487900,79.397064 z" style="fill: rgb(2, 37, 141);"/>
    <path opacity="1.000000" stroke="none" d=" M170.628525,205.034973 C170.807556,200.732895 170.222748,196.493073 171.544540,192.968231 C180.336792,169.522141 189.366348,146.160583 198.690399,122.920639 C202.299057,113.926163 211.317703,110.349327 219.490479,113.746552 C227.254486,116.973854 230.503464,125.149582 227.127823,134.259628 C218.483521,157.588547 209.719772,180.874496 200.804825,204.101273 C196.976837,214.074677 188.963181,218.656067 180.800400,216.163589 C175.379059,214.508194 172.203156,210.780838 170.628525,205.034973 z" style="fill: rgb(2, 37, 141);"/>
    <path opacity="1.000000" stroke="none" d=" M245.358826,164.890442 C236.239075,160.558411 232.559113,153.095108 235.216415,144.989838 C237.480270,138.084671 244.825668,133.539230 252.030212,134.585251 C260.722717,135.847305 266.699554,143.543961 265.481995,151.907761 C264.176086,160.878510 256.730652,166.495850 247.702362,165.315506 C247.043488,165.229355 246.390762,165.095932 245.358826,164.890442 z" style="fill: rgb(2, 37, 141);"/>
    <path opacity="1.000000" stroke="none" d=" M57.585060,136.167480 C65.004715,141.266418 67.474190,147.550018 65.150826,154.708466 C63.040413,161.210800 57.337536,165.486282 50.589054,165.625519 C43.805107,165.765472 37.530575,161.338882 35.545235,154.678604 C33.736256,148.609985 34.978161,143.061218 39.675114,138.703354 C44.832520,133.918274 50.815804,133.190323 57.585060,136.167480 z" style="fill: rgb(2, 37, 141);"/>
  </g>
</svg>